<?xml version="1.0" encoding="utf-8"?>
<!-- Generator: Adobe Illustrator 18.0.0, SVG Export Plug-In . SVG Version: 6.00 Build 0)  -->
<!DOCTYPE svg PUBLIC "-//W3C//DTD SVG 1.1//EN" "http://www.w3.org/Graphics/SVG/1.1/DTD/svg11.dtd">
<svg version="1.1" id="Layer_1" xmlns="http://www.w3.org/2000/svg" xmlns:xlink="http://www.w3.org/1999/xlink" x="0px" y="0px"
	 viewBox="0 0 155.3 70.5" enable-background="new 0 0 155.3 70.5" xml:space="preserve">
<g>
	<polygon fill="#696C71" points="0,46.1 0,59 8.4,59 8.4,56.5 2.9,56.5 2.9,46.1 	"/>
	<g>
		<path fill="#696C71" d="M27.4,57.2c-1.3,1.3-2.9,1.9-4.8,1.9s-3.5-0.6-4.8-1.9c-1.3-1.3-2-2.9-2-4.7s0.7-3.5,2-4.7
			c1.3-1.3,2.9-1.9,4.8-1.9s3.5,0.6,4.8,1.9c1.3,1.3,2,2.9,2,4.7S28.7,56,27.4,57.2 M26.4,52.5c0-1.1-0.4-2.1-1.1-2.9
			c-0.7-0.8-1.6-1.2-2.7-1.2c-1.1,0-2,0.4-2.7,1.2c-0.7,0.8-1.1,1.8-1.1,2.9c0,1.1,0.4,2.1,1.1,2.9c0.7,0.8,1.6,1.2,2.7,1.2
			c1.1,0,2-0.4,2.7-1.2C26,54.6,26.4,53.7,26.4,52.5"/>
		<polygon fill="#696C71" points="45.4,46.1 48.3,46.1 48.3,59 45.4,59 39.3,50.9 39.3,59 36.4,59 36.4,46.1 39.1,46.1 45.4,54.4 		
			"/>
		<path fill="#696C71" d="M64.8,52.5h2.9V57c-1.3,1.4-3,2.1-5.3,2.1c-1.9,0-3.5-0.6-4.8-1.9c-1.3-1.3-1.9-2.8-1.9-4.7
			c0-1.9,0.7-3.5,2-4.8c1.3-1.3,2.9-1.9,4.7-1.9c1.8,0,3.5,0.6,4.8,1.8l-1.5,2.2c-0.6-0.5-1.1-0.9-1.6-1c-0.5-0.2-1-0.3-1.6-0.3
			c-1.1,0-2,0.4-2.8,1.1c-0.7,0.7-1.1,1.7-1.1,2.9c0,1.2,0.4,2.2,1.1,2.9c0.7,0.7,1.6,1.1,2.6,1.1c1,0,1.8-0.2,2.5-0.6V52.5z"/>
		<path fill="#696C71" d="M84.4,47.3c0.9,0.8,1.4,1.9,1.4,3.5c0,1.6-0.5,2.8-1.4,3.5c-0.9,0.7-2.3,1.1-4.2,1.1h-1.7V59h-2.9V46.1
			h4.5C82.1,46.1,83.5,46.5,84.4,47.3 M82.3,52.4c0.3-0.4,0.5-1,0.5-1.7c0-0.7-0.2-1.3-0.7-1.6c-0.4-0.3-1.1-0.5-2.1-0.5h-1.6v4.3
			h1.9C81.3,52.9,82,52.7,82.3,52.4"/>
		<path fill="#696C71" d="M104.7,57.2c-1.3,1.3-2.9,1.9-4.8,1.9c-1.9,0-3.5-0.6-4.8-1.9c-1.3-1.3-2-2.9-2-4.7s0.7-3.5,2-4.7
			c1.3-1.3,2.9-1.9,4.8-1.9c1.9,0,3.5,0.6,4.8,1.9c1.3,1.3,2,2.9,2,4.7S106,56,104.7,57.2 M103.7,52.5c0-1.1-0.4-2.1-1.1-2.9
			c-0.7-0.8-1.6-1.2-2.7-1.2c-1.1,0-2,0.4-2.7,1.2c-0.7,0.8-1.1,1.8-1.1,2.9c0,1.1,0.4,2.1,1.1,2.9c0.7,0.8,1.6,1.2,2.7,1.2
			c1.1,0,2-0.4,2.7-1.2C103.3,54.6,103.7,53.7,103.7,52.5"/>
		<rect x="114" y="46.1" fill="#696C71" width="2.9" height="12.9"/>
		<polygon fill="#696C71" points="134.7,46.1 137.6,46.1 137.6,59 134.7,59 128.6,50.9 128.6,59 125.7,59 125.7,46.1 128.4,46.1 
			134.7,54.4 		"/>
		<polygon fill="#696C71" points="151.6,48.6 151.6,59 148.8,59 148.8,48.6 145.1,48.6 145.1,46.1 155.3,46.1 155.3,48.6 		"/>
		<polygon fill="#696C71" points="75.5,64.5 76.6,64.5 78.4,67.3 80.2,64.5 81.3,64.5 81.3,70.4 80.2,70.4 80.2,66.2 78.4,69 
			78.3,69 76.5,66.2 76.5,70.4 75.5,70.4 		"/>
		<rect x="87.7" y="64.5" fill="#696C71" width="1" height="5.9"/>
		<polygon fill="#696C71" points="95.2,64.5 96.2,64.5 99.3,68.6 99.3,64.5 100.3,64.5 100.3,70.4 99.5,70.4 96.2,66.2 96.2,70.4 
			95.2,70.4 		"/>
		<polygon fill="#696C71" points="106.7,64.5 111.1,64.5 111.1,65.5 107.7,65.5 107.7,67 110.7,67 110.7,67.9 107.7,67.9 
			107.7,69.5 111.1,69.5 111.1,70.4 106.7,70.4 		"/>
		<path fill="#696C71" d="M117.2,64.5h2.6c0.7,0,1.3,0.2,1.7,0.6c0.3,0.3,0.5,0.8,0.5,1.3v0c0,1-0.6,1.5-1.4,1.8l1.6,2.2H121l-1.4-2
			h-1.3v2h-1V64.5z M119.8,67.4c0.7,0,1.2-0.4,1.2-1v0c0-0.6-0.5-1-1.2-1h-1.5v2H119.8z"/>
		<path fill="#696C71" d="M130.3,64.5h1l2.6,5.9h-1.1l-0.6-1.4h-2.8l-0.6,1.4h-1.1L130.3,64.5z M131.7,68.1l-1-2.3l-1,2.3H131.7z"/>
		<polygon fill="#696C71" points="139.7,64.5 140.7,64.5 140.7,69.5 143.8,69.5 143.8,70.4 139.7,70.4 		"/>
		<path fill="#696C71" d="M149.4,69.5l0.6-0.7c0.6,0.5,1.1,0.8,1.9,0.8c0.6,0,1-0.3,1-0.7v0c0-0.4-0.2-0.6-1.3-0.9
			c-1.3-0.3-2-0.7-2-1.8v0c0-1,0.8-1.7,2-1.7c0.9,0,1.5,0.3,2.1,0.7l-0.6,0.8c-0.5-0.4-1.1-0.6-1.6-0.6c-0.6,0-1,0.3-1,0.7v0
			c0,0.5,0.3,0.7,1.4,0.9c1.2,0.3,1.9,0.7,1.9,1.7v0c0,1.1-0.9,1.8-2.1,1.8C150.9,70.5,150.1,70.2,149.4,69.5"/>
		<polygon fill="#005D80" points="96,15.7 93.6,21.6 93.6,21.6 93.7,21.6 104,16.7 104,16.7 		"/>
		<polygon fill="#006983" points="93.6,21.6 96,15.7 96,15.7 85.7,20.6 		"/>
		<polygon fill="#006983" points="83.3,26.5 91.2,27.4 93.6,21.6 		"/>
		<polygon fill="#008CBC" points="77.7,19.7 75.3,25.5 75.3,25.5 75.3,25.5 85.7,20.6 85.7,20.6 		"/>
		<polygon fill="#00A5D7" points="75.3,25.5 75.3,25.5 67.4,24.6 64.9,30.4 65,30.4 		"/>
		<polygon fill="#007C96" points="88.1,14.8 85.7,20.6 85.7,20.6 85.7,20.6 96,15.7 		"/>
		<polygon fill="#083E5E" points="108.9,5 106.5,10.8 116.7,5.9 		"/>
		<polygon fill="#081F41" points="104.6,35.2 107,29.3 96.8,34.2 		"/>
		<polygon fill="#008CBC" points="75.3,25.5 75.3,25.5 72.9,31.4 73,31.4 83.2,26.5 83.2,26.5 		"/>
		<polygon fill="#007C96" points="85.7,20.6 85.7,20.6 83.2,26.5 83.2,26.5 83.3,26.5 93.6,21.6 93.6,21.6 		"/>
		<polygon fill="#0081AD" points="85.7,20.6 75.3,25.5 83.2,26.5 		"/>
		<polygon fill="#0096C7" points="65,30.4 72.9,31.4 75.3,25.5 		"/>
		<polygon fill="#005D80" points="93.7,21.6 93.6,21.6 91.2,27.4 91.2,27.4 91.2,27.4 101.6,22.5 		"/>
		<polygon fill="#081F41" points="101.6,22.5 101.6,22.5 109.5,23.5 111.9,17.6 111.9,17.6 		"/>
		<polygon fill="#083E5E" points="100.9,28.6 100.9,28.6 100.9,28.6 		"/>
		<polygon fill="#083E5E" points="101.6,22.5 99.2,28.4 109.5,23.5 109.5,23.5 		"/>
		<polygon fill="#081F41" points="99.2,28.4 107.1,29.3 109.5,23.5 99.2,28.4 		"/>
		<polygon fill="#083E5E" points="96.7,34.2 96.8,34.2 107,29.3 107.1,29.3 99.2,28.4 		"/>
		<polygon fill="#2BB4DB" points="49.1,28.5 46.7,34.3 57,29.5 57,29.5 		"/>
		<polygon fill="#004F78" points="99.2,28.4 88.8,33.3 96.7,34.2 99.2,28.4 		"/>
		<polygon fill="#0096C7" points="36.4,39.2 46.6,34.4 38.8,33.4 		"/>
		<polygon fill="#00A5D7" points="49.1,28.5 49.1,28.5 38.8,33.4 38.8,33.4 46.6,34.4 46.7,34.3 		"/>
		<polygon fill="#081F41" points="108.9,4.9 108.7,4.9 108.9,5 116.7,5.9 116.7,5.9 116.8,5.9 119.2,0 		"/>
		<polygon fill="#0096C7" points="49.1,28.5 41.2,27.6 38.8,33.4 		"/>
		<polygon fill="#004F78" points="96,15.7 104,16.7 106.4,10.8 106.4,10.8 96.1,15.7 		"/>
		<polygon fill="#083E5E" points="104,16.7 101.6,22.5 111.9,17.6 104,16.7 		"/>
		<polygon fill="#081F41" points="111.9,17.6 111.9,17.6 114.3,11.8 104,16.7 		"/>
		<polygon fill="#004F78" points="93.7,21.6 101.6,22.5 101.6,22.5 101.6,22.5 104,16.7 		"/>
		<polygon fill="#2BB4DB" points="67.3,24.6 57,29.5 64.8,30.4 64.9,30.4 67.4,24.6 67.4,24.5 		"/>
		<polygon fill="#007C96" points="91.2,27.4 83.3,26.5 83.2,26.5 80.8,32.3 80.9,32.3 91.2,27.4 		"/>
		<polygon fill="#004F78" points="91.2,27.4 99.2,28.4 99.2,28.4 101.6,22.5 101.6,22.5 		"/>
		<polygon fill="#006983" points="80.9,32.3 88.8,33.3 91.2,27.4 		"/>
		<polygon fill="#005D80" points="91.2,27.4 88.8,33.3 88.8,33.3 99.2,28.4 91.2,27.4 		"/>
		<polygon fill="#083E5E" points="106.4,10.8 104,16.7 104,16.7 114.3,11.8 114.3,11.8 		"/>
		<polygon fill="#0081AD" points="88,14.8 77.8,19.6 77.7,19.7 77.7,19.7 85.7,20.6 88.1,14.8 		"/>
		<polygon fill="#0096C7" points="75.3,25.5 77.7,19.7 77.7,19.7 67.4,24.5 67.4,24.6 		"/>
		<polygon fill="#005D80" points="97.8,15.9 97.8,15.9 97.7,15.9 		"/>
		<polygon fill="#005D80" points="98.5,9.9 96.1,15.7 106.4,10.8 		"/>
		<polygon fill="#004F78" points="108.7,4.9 98.5,9.8 98.5,9.9 106.4,10.8 106.4,10.8 106.5,10.8 108.9,5 		"/>
		<polygon fill="#0081AD" points="73,31.4 80.8,32.3 83.2,26.5 		"/>
		<polygon fill="#081F41" points="114.3,11.8 116.7,5.9 116.7,5.9 106.5,10.8 106.4,10.8 		"/>
		<polygon fill="#006983" points="98.4,9.9 88.1,14.7 88,14.8 88.1,14.8 96,15.7 96.1,15.7 98.5,9.9 98.5,9.8 		"/>
	</g>
</g>
</svg>
