<svg xmlns="http://www.w3.org/2000/svg" viewBox="0 0 155.3 70.5"><path fill="#696C71" d="M0 46.1V59h8.4v-2.5H2.9V46.1zm27.4 11.1c-1.3 1.3-2.9 1.9-4.8 1.9s-3.5-.6-4.8-1.9c-1.3-1.3-2-2.9-2-4.7s.7-3.5 2-4.7c1.3-1.3 2.9-1.9 4.8-1.9s3.5.6 4.8 1.9c1.3 1.3 2 2.9 2 4.7s-.7 3.5-2 4.7m-1-4.7c0-1.1-.4-2.1-1.1-2.9-.7-.8-1.6-1.2-2.7-1.2s-2 .4-2.7 1.2c-.7.8-1.1 1.8-1.1 2.9 0 1.1.4 2.1 1.1 2.9.7.8 1.6 1.2 2.7 1.2s2-.4 2.7-1.2c.7-.8 1.1-1.7 1.1-2.9m19-6.4h2.9V59h-2.9l-6.1-8.1V59h-2.9V46.1h2.7l6.3 8.3zm19.4 6.4h2.9V57c-1.3 1.4-3 2.1-5.3 2.1-1.9 0-3.5-.6-4.8-1.9-1.3-1.3-1.9-2.8-1.9-4.7 0-1.9.7-3.5 2-4.8 1.3-1.3 2.9-1.9 4.7-1.9 1.8 0 3.5.6 4.8 1.8l-1.5 2.2c-.6-.5-1.1-.9-1.6-1-.5-.2-1-.3-1.6-.3-1.1 0-2 .4-2.8 1.1-.7.7-1.1 1.7-1.1 2.9s.4 2.2 1.1 2.9c.7.7 1.6 1.1 2.6 1.1s1.8-.2 2.5-.6v-3.4zm19.6-5.2c.9.8 1.4 1.9 1.4 3.5s-.5 2.8-1.4 3.5c-.9.7-2.3 1.1-4.2 1.1h-1.7V59h-2.9V46.1h4.5c2 0 3.4.4 4.3 1.2m-2.1 5.1c.3-.4.5-1 .5-1.7s-.2-1.3-.7-1.6c-.4-.3-1.1-.5-2.1-.5h-1.6v4.3h1.9c1 0 1.7-.2 2-.5m22.4 4.8c-1.3 1.3-2.9 1.9-4.8 1.9s-3.5-.6-4.8-1.9c-1.3-1.3-2-2.9-2-4.7s.7-3.5 2-4.7c1.3-1.3 2.9-1.9 4.8-1.9s3.5.6 4.8 1.9c1.3 1.3 2 2.9 2 4.7s-.7 3.5-2 4.7m-1-4.7c0-1.1-.4-2.1-1.1-2.9-.7-.8-1.6-1.2-2.7-1.2s-2 .4-2.7 1.2c-.7.8-1.1 1.8-1.1 2.9 0 1.1.4 2.1 1.1 2.9.7.8 1.6 1.2 2.7 1.2s2-.4 2.7-1.2c.7-.8 1.1-1.7 1.1-2.9m10.3-6.4h2.9V59H114zm20.7 0h2.9V59h-2.9l-6.1-8.1V59h-2.9V46.1h2.7l6.3 8.3zm16.9 2.5V59h-2.8V48.6h-3.7v-2.5h10.2v2.5zM75.5 64.5h1.1l1.8 2.8 1.8-2.8h1.1v5.9h-1.1v-4.2L78.4 69h-.1l-1.8-2.8v4.2h-1zm12.2 0h1v5.9h-1zm7.5 0h1l3.1 4.1v-4.1h1v5.9h-.8l-3.3-4.2v4.2h-1zm11.5 0h4.4v1h-3.4V67h3v.9h-3v1.6h3.4v.9h-4.4zm10.5 0h2.6c.7 0 1.3.2 1.7.6.3.3.5.8.5 1.3 0 1-.6 1.5-1.4 1.8l1.6 2.2H121l-1.4-2h-1.3v2h-1v-5.9zm2.6 2.9c.7 0 1.2-.4 1.2-1s-.5-1-1.2-1h-1.5v2h1.5zm10.5-2.9h1l2.6 5.9h-1.1l-.6-1.4h-2.8l-.6 1.4h-1.1l2.6-5.9zm1.4 3.6l-1-2.3-1 2.3h2zm8-3.6h1v5h3.1v.9h-4.1zm9.7 5l.6-.7c.6.5 1.1.8 1.9.8.6 0 1-.3 1-.7 0-.4-.2-.6-1.3-.9-1.3-.3-2-.7-2-1.8 0-1 .8-1.7 2-1.7.9 0 1.5.3 2.1.7l-.6.8c-.5-.4-1.1-.6-1.6-.6-.6 0-1 .3-1 .7 0 .5.3.7 1.4.9 1.2.3 1.9.7 1.9 1.7 0 1.1-.9 1.8-2.1 1.8-.8 0-1.6-.3-2.3-1"/><path fill="#005D80" d="M96 15.7l-2.4 5.9h.1l10.3-4.9z"/><path fill="#006983" d="M93.6 21.6l2.4-5.9-10.3 4.9zm-10.3 4.9l7.9.9 2.4-5.8z"/><path fill="#008CBC" d="M77.7 19.7l-2.4 5.8 10.4-4.9z"/><path fill="#00A5D7" d="M75.3 25.5l-7.9-.9-2.5 5.8h.1z"/><path fill="#007C96" d="M88.1 14.8l-2.4 5.8L96 15.7z"/><path fill="#083E5E" d="M108.9 5l-2.4 5.8 10.2-4.9z"/><path fill="#081F41" d="M104.6 35.2l2.4-5.9-10.2 4.9z"/><path fill="#008CBC" d="M75.3 25.5l-2.4 5.9h.1l10.2-4.9z"/><path fill="#007C96" d="M85.7 20.6l-2.5 5.9h.1l10.3-4.9z"/><path fill="#0081AD" d="M85.7 20.6l-10.4 4.9 7.9 1z"/><path fill="#0096C7" d="M65 30.4l7.9 1 2.4-5.9z"/><path fill="#005D80" d="M93.7 21.6h-.1l-2.4 5.8 10.4-4.9z"/><path fill="#081F41" d="M101.6 22.5l7.9 1 2.4-5.9z"/><path fill="#083E5E" d="M100.9 28.6zm.7-6.1l-2.4 5.9 10.3-4.9z"/><path fill="#081F41" d="M99.2 28.4l7.9.9 2.4-5.8-10.3 4.9z"/><path fill="#083E5E" d="M96.7 34.2h.1l10.2-4.9h.1l-7.9-.9z"/><path fill="#2BB4DB" d="M49.1 28.5l-2.4 5.8L57 29.5z"/><path fill="#004F78" d="M99.2 28.4l-10.4 4.9 7.9.9 2.5-5.8z"/><path fill="#0096C7" d="M36.4 39.2l10.2-4.8-7.8-1z"/><path fill="#00A5D7" d="M49.1 28.5l-10.3 4.9 7.8 1 .1-.1z"/><path fill="#081F41" d="M108.9 4.9h-.2l.2.1 7.8.9h.1l2.4-5.9z"/><path fill="#0096C7" d="M49.1 28.5l-7.9-.9-2.4 5.8z"/><path fill="#004F78" d="M96 15.7l8 1 2.4-5.9-10.3 4.9z"/><path fill="#083E5E" d="M104 16.7l-2.4 5.8 10.3-4.9-7.9-.9z"/><path fill="#081F41" d="M111.9 17.6l2.4-5.8-10.3 4.9z"/><path fill="#004F78" d="M93.7 21.6l7.9.9 2.4-5.8z"/><path fill="#2BB4DB" d="M67.3 24.6L57 29.5l7.8.9h.1l2.5-5.8v-.1z"/><path fill="#007C96" d="M91.2 27.4l-7.9-.9h-.1l-2.4 5.8h.1l10.3-4.9z"/><path fill="#004F78" d="M91.2 27.4l8 1 2.4-5.9z"/><path fill="#006983" d="M80.9 32.3l7.9 1 2.4-5.9z"/><path fill="#005D80" d="M91.2 27.4l-2.4 5.9 10.4-4.9-8-1z"/><path fill="#083E5E" d="M106.4 10.8l-2.4 5.9 10.3-4.9z"/><path fill="#0081AD" d="M88 14.8l-10.2 4.8-.1.1 8 .9 2.4-5.8z"/><path fill="#0096C7" d="M75.3 25.5l2.4-5.8-10.3 4.8v.1z"/><path fill="#005D80" d="M97.8 15.9h-.1zm.7-6l-2.4 5.8 10.3-4.9z"/><path fill="#004F78" d="M108.7 4.9L98.5 9.8v.1l7.9.9h.1l2.4-5.8z"/><path fill="#0081AD" d="M73 31.4l7.8.9 2.4-5.8z"/><path fill="#081F41" d="M114.3 11.8l2.4-5.9-10.2 4.9h-.1z"/><path fill="#006983" d="M98.4 9.9l-10.3 4.8-.1.1h.1l7.9.9h.1l2.4-5.8v-.1z"/></svg>