<?xml version="1.0" encoding="utf-8"?>
<!-- Generator: Adobe Illustrator 18.0.0, SVG Export Plug-In . SVG Version: 6.00 Build 0)  -->
<!DOCTYPE svg PUBLIC "-//W3C//DTD SVG 1.1//EN" "http://www.w3.org/Graphics/SVG/1.1/DTD/svg11.dtd">
<svg version="1.1" id="Layer_1" xmlns="http://www.w3.org/2000/svg" xmlns:xlink="http://www.w3.org/1999/xlink" x="0px" y="0px"
	 viewBox="0 0 158.1 71.7" enable-background="new 0 0 158.1 71.7" xml:space="preserve">
<g>
	<polygon fill="#FFFFFF" points="0,47 0,60.1 8.5,60.1 8.5,57.5 2.9,57.5 2.9,47 	"/>
	<g>
		<path fill="#FFFFFF" d="M27.9,58.3c-1.3,1.3-3,1.9-4.9,1.9s-3.6-0.6-4.9-1.9c-1.3-1.3-2-2.9-2-4.8c0-1.9,0.7-3.5,2-4.8
			c1.3-1.3,3-1.9,4.9-1.9s3.6,0.6,4.9,1.9c1.3,1.3,2,2.9,2,4.8C29.9,55.4,29.2,57,27.9,58.3 M26.9,53.4c0-1.2-0.4-2.2-1.1-3
			c-0.7-0.8-1.7-1.2-2.8-1.2c-1.1,0-2,0.4-2.8,1.2c-0.7,0.8-1.1,1.8-1.1,3c0,1.2,0.4,2.2,1.1,3c0.7,0.8,1.7,1.2,2.8,1.2
			c1.1,0,2-0.4,2.8-1.2C26.5,55.6,26.9,54.6,26.9,53.4"/>
		<polygon fill="#FFFFFF" points="46.2,47 49.2,47 49.2,60.1 46.2,60.1 40,51.9 40,60.1 37.1,60.1 37.1,47 39.8,47 46.2,55.4 		"/>
		<path fill="#FFFFFF" d="M66,53.4h2.9V58c-1.3,1.4-3.1,2.2-5.4,2.2c-1.9,0-3.5-0.6-4.8-1.9c-1.3-1.3-2-2.9-2-4.8
			c0-1.9,0.7-3.6,2-4.9c1.3-1.3,2.9-1.9,4.8-1.9c1.9,0,3.5,0.6,4.9,1.9l-1.5,2.2c-0.6-0.5-1.1-0.9-1.6-1.1c-0.5-0.2-1-0.3-1.6-0.3
			c-1.1,0-2,0.4-2.8,1.1c-0.8,0.8-1.1,1.8-1.1,3c0,1.2,0.4,2.2,1.1,3c0.7,0.7,1.6,1.1,2.6,1.1c1,0,1.9-0.2,2.5-0.6V53.4z"/>
		<path fill="#FFFFFF" d="M85.9,48.1c0.9,0.8,1.4,2,1.4,3.6c0,1.6-0.5,2.8-1.4,3.6c-0.9,0.7-2.4,1.1-4.3,1.1h-1.7v3.7h-2.9V47h4.6
			C83.5,47,85,47.3,85.9,48.1 M83.8,53.3c0.3-0.4,0.5-1,0.5-1.7c0-0.8-0.2-1.3-0.7-1.6c-0.5-0.3-1.2-0.5-2.1-0.5h-1.7v4.4h2
			C82.8,53.9,83.4,53.7,83.8,53.3"/>
		<path fill="#FFFFFF" d="M106.5,58.3c-1.3,1.3-3,1.9-4.9,1.9c-1.9,0-3.6-0.6-4.9-1.9c-1.3-1.3-2-2.9-2-4.8c0-1.9,0.7-3.5,2-4.8
			c1.3-1.3,3-1.9,4.9-1.9c1.9,0,3.6,0.6,4.9,1.9c1.3,1.3,2,2.9,2,4.8C108.5,55.4,107.8,57,106.5,58.3 M105.5,53.4
			c0-1.2-0.4-2.2-1.1-3c-0.7-0.8-1.7-1.2-2.8-1.2c-1.1,0-2,0.4-2.8,1.2c-0.8,0.8-1.1,1.8-1.1,3c0,1.2,0.4,2.2,1.1,3
			c0.7,0.8,1.7,1.2,2.8,1.2c1.1,0,2-0.4,2.8-1.2C105.1,55.6,105.5,54.6,105.5,53.4"/>
		<rect x="116" y="47" fill="#FFFFFF" width="2.9" height="13.1"/>
		<polygon fill="#FFFFFF" points="137.1,47 140,47 140,60.1 137.1,60.1 130.8,51.9 130.8,60.1 127.9,60.1 127.9,47 130.7,47 
			137.1,55.4 		"/>
		<polygon fill="#FFFFFF" points="154.3,49.5 154.3,60.1 151.4,60.1 151.4,49.5 147.7,49.5 147.7,47 158.1,47 158.1,49.5 		"/>
		<polygon fill="#FFFFFF" points="76.8,65.7 77.9,65.7 79.8,68.5 81.6,65.7 82.7,65.7 82.7,71.7 81.7,71.7 81.7,67.4 79.8,70.2 
			79.7,70.2 77.9,67.4 77.9,71.7 76.8,71.7 		"/>
		<rect x="89.3" y="65.7" fill="#FFFFFF" width="1.1" height="6"/>
		<polygon fill="#FFFFFF" points="96.9,65.7 97.9,65.7 101.1,69.8 101.1,65.7 102.1,65.7 102.1,71.7 101.2,71.7 97.9,67.4 
			97.9,71.7 96.9,71.7 		"/>
		<polygon fill="#FFFFFF" points="108.6,65.7 113,65.7 113,66.6 109.7,66.6 109.7,68.2 112.7,68.2 112.7,69.1 109.7,69.1 
			109.7,70.7 113.1,70.7 113.1,71.7 108.6,71.7 		"/>
		<path fill="#FFFFFF" d="M119.3,65.7h2.7c0.8,0,1.3,0.2,1.7,0.6c0.3,0.3,0.5,0.8,0.5,1.3v0c0,1-0.6,1.6-1.4,1.8l1.6,2.3h-1.2
			l-1.5-2.1h-1.3v2.1h-1.1V65.7z M121.9,68.6c0.8,0,1.2-0.4,1.2-1v0c0-0.6-0.5-1-1.2-1h-1.5v2H121.9z"/>
		<path fill="#FFFFFF" d="M132.6,65.6h1l2.6,6h-1.1l-0.6-1.4h-2.8l-0.6,1.4h-1.1L132.6,65.6z M134.1,69.3l-1-2.4l-1,2.4H134.1z"/>
		<polygon fill="#FFFFFF" points="142.2,65.7 143.2,65.7 143.2,70.7 146.4,70.7 146.4,71.7 142.2,71.7 		"/>
		<path fill="#FFFFFF" d="M152,70.8l0.6-0.8c0.6,0.5,1.2,0.8,1.9,0.8c0.6,0,1.1-0.3,1.1-0.8v0c0-0.4-0.2-0.7-1.3-0.9
			c-1.3-0.3-2-0.7-2-1.8v0c0-1,0.9-1.7,2-1.7c0.9,0,1.6,0.3,2.2,0.8l-0.6,0.8c-0.5-0.4-1.1-0.6-1.6-0.6c-0.6,0-1,0.3-1,0.7v0
			c0,0.5,0.3,0.7,1.4,0.9c1.3,0.3,1.9,0.8,1.9,1.8v0c0,1.1-0.9,1.8-2.1,1.8C153.6,71.7,152.7,71.4,152,70.8"/>
		<polygon fill="#005D80" points="97.8,16 95.3,21.9 95.3,22 95.3,21.9 105.9,17 105.9,17 		"/>
		<polygon fill="#006983" points="95.3,21.9 97.8,16 97.7,16 87.2,21 		"/>
		<polygon fill="#006983" points="84.8,26.9 92.8,27.9 95.3,22 		"/>
		<polygon fill="#008CBC" points="79.1,20 76.7,26 76.7,26 76.7,26 87.2,21 87.2,21 		"/>
		<polygon fill="#00A5D7" points="76.7,26 76.7,26 68.6,25 66.1,30.9 66.2,31 		"/>
		<polygon fill="#007C96" points="89.7,15 87.2,21 87.2,21 87.2,21 97.7,16 		"/>
		<polygon fill="#083E5E" points="110.8,5.1 108.3,10.9 118.8,6 		"/>
		<polygon fill="#081F41" points="106.5,35.8 108.9,29.9 98.5,34.8 		"/>
		<polygon fill="#008CBC" points="76.7,26 76.6,26 74.2,31.9 74.3,31.9 84.7,27 84.7,26.9 		"/>
		<polygon fill="#007C96" points="87.2,21 87.2,21 84.7,26.9 84.7,27 84.8,26.9 95.3,22 95.3,21.9 		"/>
		<polygon fill="#0081AD" points="87.2,21 76.7,26 84.7,26.9 		"/>
		<polygon fill="#0096C7" points="66.2,31 74.2,31.9 76.7,26 		"/>
		<polygon fill="#005D80" points="95.3,21.9 95.3,22 92.8,27.9 92.8,27.9 92.8,27.9 103.4,22.9 		"/>
		<polygon fill="#081F41" points="103.4,22.9 103.4,22.9 111.4,23.9 113.9,17.9 113.9,17.9 		"/>
		<polygon fill="#083E5E" points="102.7,29.1 102.7,29.1 102.7,29.1 		"/>
		<polygon fill="#083E5E" points="103.4,22.9 100.9,28.9 111.4,23.9 111.4,23.9 		"/>
		<polygon fill="#081F41" points="100.9,28.9 109,29.8 111.4,23.9 100.9,28.9 		"/>
		<polygon fill="#083E5E" points="98.4,34.8 98.5,34.8 108.9,29.9 109,29.8 100.9,28.9 		"/>
		<polygon fill="#2BB4DB" points="50,29 47.5,34.9 58,30 58,30 		"/>
		<polygon fill="#004F78" points="100.9,28.9 90.4,33.9 98.4,34.8 100.9,28.9 		"/>
		<polygon fill="#0096C7" points="37,39.9 47.5,35 39.5,34 		"/>
		<polygon fill="#00A5D7" points="50,29 50,29 39.5,34 39.5,34 47.5,35 47.5,34.9 		"/>
		<polygon fill="#081F41" points="110.8,5 110.7,5 110.8,5.1 118.8,6 118.8,6 118.8,6 121.3,0 		"/>
		<polygon fill="#0096C7" points="50,29 41.9,28.1 39.5,34 		"/>
		<polygon fill="#004F78" points="97.8,16 105.9,17 108.3,11 108.2,11 97.8,16 		"/>
		<polygon fill="#083E5E" points="105.9,17 103.4,22.9 113.9,17.9 105.9,17 		"/>
		<polygon fill="#081F41" points="113.9,17.9 113.9,17.9 116.3,12 105.9,17 		"/>
		<polygon fill="#004F78" points="95.3,21.9 103.4,22.9 103.4,22.9 103.4,22.9 105.9,17 		"/>
		<polygon fill="#2BB4DB" points="68.5,25 58,30 66,30.9 66.1,30.9 68.6,25 68.6,25 		"/>
		<polygon fill="#007C96" points="92.8,27.9 84.8,26.9 84.7,27 82.3,32.9 82.3,32.9 92.8,27.9 		"/>
		<polygon fill="#004F78" points="92.8,27.9 100.9,28.9 100.9,28.9 103.4,22.9 103.4,22.9 		"/>
		<polygon fill="#006983" points="82.3,32.9 90.4,33.8 92.8,27.9 		"/>
		<polygon fill="#005D80" points="92.8,27.9 90.4,33.8 90.4,33.9 100.9,28.9 92.8,27.9 		"/>
		<polygon fill="#083E5E" points="108.3,11 105.9,17 105.9,17 116.3,12 116.4,12 		"/>
		<polygon fill="#0081AD" points="89.6,15 79.1,20 79.1,20 79.1,20 87.2,21 89.7,15 		"/>
		<polygon fill="#0096C7" points="76.7,26 79.1,20 79.1,20 68.6,25 68.6,25 		"/>
		<polygon fill="#005D80" points="99.5,16.2 99.5,16.2 99.5,16.2 		"/>
		<polygon fill="#005D80" points="100.2,10 97.8,16 108.2,11 		"/>
		<polygon fill="#004F78" points="110.7,5 100.2,10 100.2,10 108.2,11 108.3,11 108.3,10.9 110.8,5.1 		"/>
		<polygon fill="#0081AD" points="74.3,31.9 82.3,32.9 84.7,27 		"/>
		<polygon fill="#081F41" points="116.4,12 118.8,6 118.8,6 108.3,10.9 108.3,11 		"/>
		<polygon fill="#006983" points="100.1,10 89.7,15 89.6,15 89.7,15 97.7,16 97.8,16 100.2,10 100.2,10 		"/>
	</g>
</g>
</svg>
