<svg xmlns="http://www.w3.org/2000/svg" viewBox="0 0 158.1 71.7"><path fill="#FFF" d="M0 47v13.1h8.5v-2.6H2.9V47zm27.9 11.3c-1.3 1.3-3 1.9-4.9 1.9s-3.6-.6-4.9-1.9c-1.3-1.3-2-2.9-2-4.8s.7-3.5 2-4.8c1.3-1.3 3-1.9 4.9-1.9s3.6.6 4.9 1.9c1.3 1.3 2 2.9 2 4.8s-.7 3.5-2 4.8m-1-4.9c0-1.2-.4-2.2-1.1-3-.7-.8-1.7-1.2-2.8-1.2-1.1 0-2 .4-2.8 1.2-.7.8-1.1 1.8-1.1 3s.4 2.2 1.1 3c.7.8 1.7 1.2 2.8 1.2 1.1 0 2-.4 2.8-1.2.7-.8 1.1-1.8 1.1-3M46.2 47h3v13.1h-3L40 51.9v8.2h-2.9V47h2.7l6.4 8.4zM66 53.4h2.9V58c-1.3 1.4-3.1 2.2-5.4 2.2-1.9 0-3.5-.6-4.8-1.9-1.3-1.3-2-2.9-2-4.8s.7-3.6 2-4.9c1.3-1.3 2.9-1.9 4.8-1.9s3.5.6 4.9 1.9l-1.5 2.2c-.6-.5-1.1-.9-1.6-1.1-.5-.2-1-.3-1.6-.3-1.1 0-2 .4-2.8 1.1-.8.8-1.1 1.8-1.1 3s.4 2.2 1.1 3c.7.7 1.6 1.1 2.6 1.1s1.9-.2 2.5-.6v-3.6zm19.9-5.3c.9.8 1.4 2 1.4 3.6s-.5 2.8-1.4 3.6c-.9.7-2.4 1.1-4.3 1.1h-1.7v3.7H77V47h4.6c1.9 0 3.4.3 4.3 1.1m-2.1 5.2c.3-.4.5-1 .5-1.7 0-.8-.2-1.3-.7-1.6-.5-.3-1.2-.5-2.1-.5h-1.7v4.4h2c1 0 1.6-.2 2-.6m22.7 5c-1.3 1.3-3 1.9-4.9 1.9-1.9 0-3.6-.6-4.9-1.9-1.3-1.3-2-2.9-2-4.8s.7-3.5 2-4.8c1.3-1.3 3-1.9 4.9-1.9 1.9 0 3.6.6 4.9 1.9 1.3 1.3 2 2.9 2 4.8s-.7 3.5-2 4.8m-1-4.9c0-1.2-.4-2.2-1.1-3-.7-.8-1.7-1.2-2.8-1.2-1.1 0-2 .4-2.8 1.2-.8.8-1.1 1.8-1.1 3s.4 2.2 1.1 3c.7.8 1.7 1.2 2.8 1.2 1.1 0 2-.4 2.8-1.2.7-.8 1.1-1.8 1.1-3M116 47h2.9v13.1H116zm21.1 0h2.9v13.1h-2.9l-6.3-8.2v8.2h-2.9V47h2.8l6.4 8.4zm17.2 2.5v10.6h-2.9V49.5h-3.7V47h10.4v2.5zM76.8 65.7h1.1l1.9 2.8 1.8-2.8h1.1v6h-1v-4.3l-1.9 2.8h-.1l-1.8-2.8v4.3h-1.1zm12.5 0h1.1v6h-1.1zm7.6 0h1l3.2 4.1v-4.1h1v6h-.9l-3.3-4.3v4.3h-1zm11.7 0h4.4v.9h-3.3v1.6h3v.9h-3v1.6h3.4v1h-4.5zm10.7 0h2.7c.8 0 1.3.2 1.7.6.3.3.5.8.5 1.3 0 1-.6 1.6-1.4 1.8l1.6 2.3h-1.2l-1.5-2.1h-1.3v2.1h-1.1v-6zm2.6 2.9c.8 0 1.2-.4 1.2-1s-.5-1-1.2-1h-1.5v2h1.5zm10.7-3h1l2.6 6h-1.1l-.6-1.4h-2.8l-.6 1.4H130l2.6-6zm1.5 3.7l-1-2.4-1 2.4h2zm8.1-3.6h1v5h3.2v1h-4.2zm9.8 5.1l.6-.8c.6.5 1.2.8 1.9.8.6 0 1.1-.3 1.1-.8 0-.4-.2-.7-1.3-.9-1.3-.3-2-.7-2-1.8 0-1 .9-1.7 2-1.7.9 0 1.6.3 2.2.8l-.6.8c-.5-.4-1.1-.6-1.6-.6-.6 0-1 .3-1 .7 0 .5.3.7 1.4.9 1.3.3 1.9.8 1.9 1.8 0 1.1-.9 1.8-2.1 1.8-.9-.1-1.8-.4-2.5-1"/><path fill="#005D80" d="M97.8 16l-2.5 5.9v.1-.1l10.6-4.9z"/><path fill="#006983" d="M95.3 21.9l2.5-5.9h-.1l-10.5 5zm-10.5 5l8 1 2.5-5.9z"/><path fill="#008CBC" d="M79.1 20l-2.4 6 10.5-5z"/><path fill="#00A5D7" d="M76.7 26l-8.1-1-2.5 5.9.1.1z"/><path fill="#007C96" d="M89.7 15l-2.5 6 10.5-5z"/><path fill="#083E5E" d="M110.8 5.1l-2.5 5.8L118.8 6z"/><path fill="#081F41" d="M106.5 35.8l2.4-5.9-10.4 4.9z"/><path fill="#008CBC" d="M76.7 26h-.1l-2.4 5.9h.1L84.7 27v-.1z"/><path fill="#007C96" d="M87.2 21l-2.5 5.9v.1l.1-.1L95.3 22v-.1z"/><path fill="#0081AD" d="M87.2 21l-10.5 5 8 .9z"/><path fill="#0096C7" d="M66.2 31l8 .9 2.5-5.9z"/><path fill="#005D80" d="M95.3 21.9v.1l-2.5 5.9 10.6-5z"/><path fill="#081F41" d="M103.4 22.9l8 1 2.5-6z"/><path fill="#083E5E" d="M102.7 29.1zm.7-6.2l-2.5 6 10.5-5z"/><path fill="#081F41" d="M100.9 28.9l8.1.9 2.4-5.9-10.5 5z"/><path fill="#083E5E" d="M98.4 34.8h.1l10.4-4.9.1-.1-8.1-.9z"/><path fill="#2BB4DB" d="M50 29l-2.5 5.9L58 30z"/><path fill="#004F78" d="M100.9 28.9l-10.5 5 8 .9 2.5-5.9z"/><path fill="#0096C7" d="M37 39.9L47.5 35l-8-1z"/><path fill="#00A5D7" d="M50 29l-10.5 5 8 1v-.1z"/><path fill="#081F41" d="M110.8 5h-.1l.1.1 8 .9 2.5-6z"/><path fill="#0096C7" d="M50 29l-8.1-.9-2.4 5.9z"/><path fill="#004F78" d="M97.8 16l8.1 1 2.4-6h-.1l-10.4 5z"/><path fill="#083E5E" d="M105.9 17l-2.5 5.9 10.5-5-8-.9z"/><path fill="#081F41" d="M113.9 17.9l2.4-5.9-10.4 5z"/><path fill="#004F78" d="M95.3 21.9l8.1 1 2.5-5.9z"/><path fill="#2BB4DB" d="M68.5 25L58 30l8 .9h.1l2.5-5.9z"/><path fill="#007C96" d="M92.8 27.9l-8-1-.1.1-2.4 5.9 10.5-5z"/><path fill="#004F78" d="M92.8 27.9l8.1 1 2.5-6z"/><path fill="#006983" d="M82.3 32.9l8.1.9 2.4-5.9z"/><path fill="#005D80" d="M92.8 27.9l-2.4 5.9v.1l10.5-5-8.1-1z"/><path fill="#083E5E" d="M108.3 11l-2.4 6 10.4-5h.1z"/><path fill="#0081AD" d="M89.6 15l-10.5 5 8.1 1 2.5-6z"/><path fill="#0096C7" d="M76.7 26l2.4-6-10.5 5z"/><path fill="#005D80" d="M99.5 16.2zm.7-6.2l-2.4 6 10.4-5z"/><path fill="#004F78" d="M110.7 5l-10.5 5 8 1h.1v-.1l2.5-5.8z"/><path fill="#0081AD" d="M74.3 31.9l8 1 2.4-5.9z"/><path fill="#081F41" d="M116.4 12l2.4-6-10.5 4.9v.1z"/><path fill="#006983" d="M100.1 10l-10.4 5h-.1.1l8 1h.1l2.4-6z"/></svg>